<svg width="48" height="48" xmlns="http://www.w3.org/2000/svg">

 <g>
  <title>background</title>
  <rect fill="none" id="canvas_background" height="402" width="582" y="-1" x="-1"/>
 </g>
 <g>
  <title>Layer 1</title>
  <path id="svg_2" fill="#2a3251" d="m24.00024,11.96826c-3.94531,0 -7.15479,3.20947 -7.15479,7.1543c0,0.14941 0.00488,0.29785 0.01416,0.44727c0.03662,0.59473 0.14697,1.18018 0.32764,1.73926c0.19092,0.59424 0.44629,1.12891 0.76025,1.58936l5.25537,7.87402c0.17822,0.2666 0.47607,0.42578 0.79639,0.42578c0.3208,0 0.61816,-0.15918 0.83398,-0.48242l5.26855,-7.88916c0.04883,-0.07471 0.09619,-0.14941 0.1416,-0.22656c0.26758,-0.45166 0.48486,-0.96924 0.64502,-1.53857c0.17627,-0.62646 0.26611,-1.27881 0.26611,-1.93896c0.00002,-3.94485 -3.20945,-7.15432 -7.15428,-7.15432zm-3.0625,8.08301c-0.10693,-1.68848 1.18018,-3.14941 2.86865,-3.25586c1.69385,-0.11035 3.14893,1.18018 3.25635,2.86865c0.10693,1.68848 -1.18018,3.14941 -2.86914,3.25635c-0.06543,0.00439 -0.13086,0.00635 -0.19531,0.00635c-1.60449,0 -2.95801,-1.25196 -3.06055,-2.87549zm3.93653,-6.36231c1.52393,0.06348 2.93213,0.86768 3.7666,2.1499c0.10547,0.16211 0.05957,0.37891 -0.10254,0.48438c-0.05908,0.03809 -0.125,0.05664 -0.19043,0.05664c-0.11475,0 -0.22656,-0.05615 -0.29395,-0.15918c-0.71094,-1.09326 -1.91064,-1.77832 -3.20898,-1.83252c-0.19336,-0.00781 -0.34326,-0.1709 -0.33496,-0.36426c0.00781,-0.19287 0.16016,-0.35302 0.36426,-0.33496zm4.17627,5.25489c-0.00537,0 -0.01025,0 -0.01514,-0.00049c-0.19287,-0.00781 -0.34326,-0.1709 -0.33496,-0.36426c0.01807,-0.43115 -0.03271,-0.8584 -0.1499,-1.26953c-0.05322,-0.18604 0.0542,-0.37939 0.24023,-0.43262c0.18457,-0.05371 0.37939,0.0542 0.43262,0.24023c0.13818,0.4834 0.19775,0.98535 0.17627,1.49121c-0.00781,0.188 -0.1626,0.33546 -0.34912,0.33546z"/>
  <path id="svg_3" fill="#2a3251" d="m24.00024,33.4458c-1.58154,0 -3.28369,0.40479 -3.28369,1.29297s1.70215,1.29297 3.28369,1.29297s3.28369,-0.40479 3.28369,-1.29297s-1.70214,-1.29297 -3.28369,-1.29297z"/>
 </g>
</svg>